<svg xmlns="http://www.w3.org/2000/svg" width="720" height="190" viewBox="0 0 720 190" role="img" aria-label="1,012 npm installs in the last 30 days across rn16k and rn-arch-check">
  <title>npm installs — 1,012 in the last 30 days</title>
  <defs>
    <linearGradient id="fade" x1="0" y1="0" x2="0" y2="1">
      <stop offset="0%" stop-color="#7B2434" stop-opacity="0.22"/>
      <stop offset="100%" stop-color="#7B2434" stop-opacity="0"/>
    </linearGradient>
  </defs>

  <rect x="0.5" y="0.5" width="719" height="189" rx="10" fill="none" stroke="#D8D2C8"/>

  <text x="28" y="34" font-family="ui-monospace, SFMono-Regular, 'JetBrains Mono', Menlo, Consolas, monospace" font-size="12" letter-spacing="2" fill="#7B2434">OPEN SOURCE · LIVE FROM NPM</text>
  <text x="692" y="34" text-anchor="end" font-family="ui-monospace, SFMono-Regular, 'JetBrains Mono', Menlo, Consolas, monospace" font-size="11" fill="#6B6459">2026-09-08</text>

    <text x="28" y="72" font-family="ui-monospace, SFMono-Regular, 'JetBrains Mono', Menlo, Consolas, monospace" font-size="30" font-weight="600" fill="#2E2A24">1,012</text>
    <text x="28" y="90" font-family="ui-monospace, SFMono-Regular, 'JetBrains Mono', Menlo, Consolas, monospace" font-size="11" letter-spacing="0.6" fill="#6B6459">installs · 30 days</text>
    <text x="249.33333333333334" y="72" font-family="ui-monospace, SFMono-Regular, 'JetBrains Mono', Menlo, Consolas, monospace" font-size="30" font-weight="600" fill="#2E2A24">261</text>
    <text x="249.33333333333334" y="90" font-family="ui-monospace, SFMono-Regular, 'JetBrains Mono', Menlo, Consolas, monospace" font-size="11" letter-spacing="0.6" fill="#6B6459">rn16k</text>
    <text x="470.6666666666667" y="72" font-family="ui-monospace, SFMono-Regular, 'JetBrains Mono', Menlo, Consolas, monospace" font-size="30" font-weight="600" fill="#2E2A24">751</text>
    <text x="470.6666666666667" y="90" font-family="ui-monospace, SFMono-Regular, 'JetBrains Mono', Menlo, Consolas, monospace" font-size="11" letter-spacing="0.6" fill="#6B6459">rn-arch-check</text>

  <path d="M 28.0 139.1 C 30.6 141.7, 38.5 152.1, 43.8 154.8 C 49.1 157.5, 54.3 155.2, 59.6 155.3 C 64.9 155.4, 70.2 155.4, 75.4 155.4 C 80.7 155.4, 86.0 155.3, 91.2 155.2 C 96.5 155.2, 101.8 155.1, 107.0 155.2 C 112.3 155.3, 117.6 155.9, 122.9 155.9 C 128.1 156.0, 133.4 159.9, 138.7 155.6 C 143.9 151.3, 149.2 130.2, 154.5 130.1 C 159.7 129.9, 165.0 150.7, 170.3 154.8 C 175.6 158.9, 180.8 154.5, 186.1 154.6 C 191.4 154.7, 196.6 155.2, 201.9 155.4 C 207.2 155.6, 212.4 164.4, 217.7 155.8 C 223.0 147.2, 228.3 104.4, 233.5 104.0 C 238.8 103.6, 244.1 145.3, 249.3 153.5 C 254.6 161.7, 259.9 153.1, 265.1 153.2 C 270.4 153.3, 275.7 153.7, 281.0 154.2 C 286.2 154.7, 291.5 155.8, 296.8 156.0 C 302.0 156.2, 307.3 155.2, 312.6 155.2 C 317.8 155.1, 323.1 155.7, 328.4 155.7 C 333.7 155.7, 338.9 155.4, 344.2 155.0 C 349.5 154.7, 354.7 153.7, 360.0 153.8 C 365.3 153.9, 370.5 155.5, 375.8 155.7 C 381.1 155.9, 386.3 154.9, 391.6 155.0 C 396.9 155.0, 402.2 155.8, 407.4 155.9 C 412.7 156.1, 418.0 155.9, 423.2 155.9 C 428.5 155.9, 433.8 156.0, 439.0 155.9 C 444.3 155.9, 449.6 155.6, 454.9 155.6 C 460.1 155.6, 465.4 155.7, 470.7 155.8 C 475.9 155.9, 481.2 155.9, 486.5 155.9 C 491.7 155.9, 497.0 155.8, 502.3 155.8 C 507.6 155.8, 512.8 156.0, 518.1 155.8 C 523.4 155.6, 528.6 154.8, 533.9 154.8 C 539.2 154.8, 544.4 155.6, 549.7 155.7 C 555.0 155.8, 560.3 155.4, 565.5 155.4 C 570.8 155.5, 576.1 156.0, 581.3 156.0 C 586.6 156.0, 591.9 155.7, 597.1 155.7 C 602.4 155.7, 607.7 156.0, 613.0 156.0 C 618.2 156.0, 623.5 155.8, 628.8 155.8 C 634.0 155.8, 639.3 156.0, 644.6 156.0 C 649.8 156.0, 655.1 155.7, 660.4 155.7 C 665.7 155.7, 670.9 156.0, 676.2 156.0 C 681.5 156.0, 689.4 156.0, 692.0 156.0 L 692.0 156 L 28.0 156 Z" fill="url(#fade)"/>
  <path d="M 28.0 139.1 C 30.6 141.7, 38.5 152.1, 43.8 154.8 C 49.1 157.5, 54.3 155.2, 59.6 155.3 C 64.9 155.4, 70.2 155.4, 75.4 155.4 C 80.7 155.4, 86.0 155.3, 91.2 155.2 C 96.5 155.2, 101.8 155.1, 107.0 155.2 C 112.3 155.3, 117.6 155.9, 122.9 155.9 C 128.1 156.0, 133.4 159.9, 138.7 155.6 C 143.9 151.3, 149.2 130.2, 154.5 130.1 C 159.7 129.9, 165.0 150.7, 170.3 154.8 C 175.6 158.9, 180.8 154.5, 186.1 154.6 C 191.4 154.7, 196.6 155.2, 201.9 155.4 C 207.2 155.6, 212.4 164.4, 217.7 155.8 C 223.0 147.2, 228.3 104.4, 233.5 104.0 C 238.8 103.6, 244.1 145.3, 249.3 153.5 C 254.6 161.7, 259.9 153.1, 265.1 153.2 C 270.4 153.3, 275.7 153.7, 281.0 154.2 C 286.2 154.7, 291.5 155.8, 296.8 156.0 C 302.0 156.2, 307.3 155.2, 312.6 155.2 C 317.8 155.1, 323.1 155.7, 328.4 155.7 C 333.7 155.7, 338.9 155.4, 344.2 155.0 C 349.5 154.7, 354.7 153.7, 360.0 153.8 C 365.3 153.9, 370.5 155.5, 375.8 155.7 C 381.1 155.9, 386.3 154.9, 391.6 155.0 C 396.9 155.0, 402.2 155.8, 407.4 155.9 C 412.7 156.1, 418.0 155.9, 423.2 155.9 C 428.5 155.9, 433.8 156.0, 439.0 155.9 C 444.3 155.9, 449.6 155.6, 454.9 155.6 C 460.1 155.6, 465.4 155.7, 470.7 155.8 C 475.9 155.9, 481.2 155.9, 486.5 155.9 C 491.7 155.9, 497.0 155.8, 502.3 155.8 C 507.6 155.8, 512.8 156.0, 518.1 155.8 C 523.4 155.6, 528.6 154.8, 533.9 154.8 C 539.2 154.8, 544.4 155.6, 549.7 155.7 C 555.0 155.8, 560.3 155.4, 565.5 155.4 C 570.8 155.5, 576.1 156.0, 581.3 156.0 C 586.6 156.0, 591.9 155.7, 597.1 155.7 C 602.4 155.7, 607.7 156.0, 613.0 156.0 C 618.2 156.0, 623.5 155.8, 628.8 155.8 C 634.0 155.8, 639.3 156.0, 644.6 156.0 C 649.8 156.0, 655.1 155.7, 660.4 155.7 C 665.7 155.7, 670.9 156.0, 676.2 156.0 C 681.5 156.0, 689.4 156.0, 692.0 156.0" fill="none" stroke="#7B2434" stroke-width="2" stroke-linecap="round" stroke-linejoin="round"/>
  <circle cx="692.0" cy="156.0" r="3" fill="#7B2434"/>

  <text x="28" y="176" font-family="ui-monospace, SFMono-Regular, 'JetBrains Mono', Menlo, Consolas, monospace" font-size="10" fill="#6B6459">2026-07-28</text>
  <text x="692" y="176" text-anchor="end" font-family="ui-monospace, SFMono-Regular, 'JetBrains Mono', Menlo, Consolas, monospace" font-size="10" fill="#6B6459">daily installs · peak 754</text>
</svg>
